# xmcd
#
# Track frame offsets: 
#        150
#        895
#        21740
#        46038
#        66540
#        87983
#        104093
#        126025
#        144870
#        162395
#        185765
#
# Disc length: 2678 seconds
#
# Revision: 5
# Processed by: cddbd v1.5.2PL0 Copyright (c) Steve Scherf et al.
# Submitted via: ExactAudioCopy v1.1
#
DISCID=950a740b
DTITLE=Raf - Sogni... É Tutto Quello Che C'É
DYEAR=1991
DGENRE=Pop
TTITLE0=Sogni ''Prelude''
TTITLE1=Interminatamente
TTITLE2=Siamo Soli Nell'Immenso Vuoto Che C'é
TTITLE3=Oggi Un Dio Non Ho
TTITLE4=Se Ti Senti Sola
TTITLE5=Anche Tu
TTITLE6=Amarsi O Non Amarsi
TTITLE7=Senza Respiro
TTITLE8=É Meglio Così
TTITLE9=Malinverno
TTITLE10=Sogni
EXTD=YEAR: 1991
EXTT0=
EXTT1=
EXTT2=
EXTT3=
EXTT4=
EXTT5=
EXTT6=
EXTT7=
EXTT8=
EXTT9=
EXTT10=
PLAYORDER=
